<svg width="209" height="182" viewBox="0 0 209 182" fill="none" xmlns="http://www.w3.org/2000/svg">
<path d="M176.918 97.2285C176.918 84.8928 174.202 72.7085 168.961 61.5415C163.72 50.3744 156.084 40.4987 146.596 32.616C137.107 24.7334 125.999 19.0373 114.06 15.9326C102.122 12.8278 89.6459 12.3906 77.5193 14.652L92.9184 97.2285H176.918Z" fill="#2DEF1D" stroke="white"/>
<path d="M77.5193 14.652C65.7521 16.8464 54.5898 21.5304 44.7803 28.3901C34.9708 35.2498 26.7407 44.1268 20.6414 54.4263L92.9185 97.2285L77.5193 14.652Z" fill="#2DEF1D" stroke="white"/>
<path d="M20.6414 54.4263C10.8811 70.9079 7.04689 90.2303 9.77448 109.19C12.5021 128.149 21.6277 145.607 35.6382 158.669C49.6487 171.731 67.7026 179.612 86.8066 181.006C105.911 182.4 124.917 177.222 140.675 166.332L92.9185 97.2285L20.6414 54.4263Z" fill="#2DEF1D" stroke="white"/>
<path d="M140.675 166.332C151.856 158.605 160.995 148.28 167.308 136.244C173.621 124.208 176.918 110.82 176.918 97.2285H92.9185L140.675 166.332Z" fill="#2DEF1D" stroke="white"/>
<path d="M146.596 32.6161L159.376 17.2322L146.596 32.6161Z" fill="#2DEF1D"/>
<path d="M146.596 32.6161L159.376 17.2322" stroke="#26DD7C"/>
<path d="M160.075 15.4424V14.5731L163.91 8.5049H164.541V9.8515H164.115L161.217 14.4367V14.5049H166.382V15.4424H160.075ZM164.183 17.2322V15.1782V14.7734V8.5049H165.188V17.2322H164.183ZM168.251 17.2322L172.155 9.51059V9.4424H167.655V8.5049H173.246V9.49354L169.359 17.2322H168.251ZM177.544 17.3515C177.186 17.3458 176.828 17.2776 176.47 17.147C176.112 17.0163 175.786 16.7961 175.49 16.4864C175.195 16.1739 174.958 15.7521 174.779 15.2208C174.6 14.6867 174.51 14.0163 174.51 13.2095C174.51 12.4367 174.583 11.7521 174.728 11.1555C174.872 10.556 175.083 10.0518 175.358 9.64269C175.634 9.23076 175.966 8.91826 176.355 8.70519C176.747 8.49212 177.189 8.38559 177.681 8.38559C178.169 8.38559 178.604 8.4836 178.985 8.67962C179.368 8.8728 179.681 9.14269 179.922 9.48928C180.164 9.83587 180.32 10.235 180.391 10.6867H179.351C179.255 10.2947 179.067 9.96939 178.789 9.71087C178.51 9.45235 178.141 9.32309 177.681 9.32309C177.005 9.32309 176.472 9.61712 176.083 10.2052C175.696 10.7933 175.502 11.6185 175.499 12.681H175.567C175.726 12.4396 175.915 12.2336 176.134 12.0631C176.355 11.8898 176.6 11.7563 176.867 11.6626C177.134 11.5688 177.416 11.522 177.715 11.522C178.215 11.522 178.672 11.647 179.087 11.897C179.502 12.1441 179.834 12.4864 180.084 12.9239C180.334 13.3586 180.459 13.8572 180.459 14.4197C180.459 14.9595 180.338 15.4538 180.097 15.9026C179.855 16.3487 179.516 16.7038 179.078 16.968C178.644 17.2293 178.132 17.3572 177.544 17.3515ZM177.544 16.414C177.902 16.414 178.223 16.3245 178.507 16.1455C178.794 15.9666 179.02 15.7265 179.185 15.4254C179.353 15.1242 179.436 14.789 179.436 14.4197C179.436 14.0589 179.355 13.7308 179.193 13.4353C179.034 13.137 178.814 12.8998 178.533 12.7237C178.255 12.5475 177.936 12.4595 177.578 12.4595C177.309 12.4595 177.057 12.5134 176.824 12.6214C176.591 12.7265 176.387 12.8714 176.21 13.056C176.037 13.2407 175.901 13.4523 175.801 13.691C175.702 13.9268 175.652 14.1754 175.652 14.4367C175.652 14.7833 175.733 15.1072 175.895 15.4083C176.06 15.7095 176.284 15.9523 176.568 16.137C176.855 16.3217 177.181 16.414 177.544 16.414Z" fill="#2DEF1D"/>
<path d="M44.7803 28.3901L33.3188 12L44.7803 28.3901Z" fill="#2DEF1D"/>
<path d="M44.7803 28.3901L33.3188 12" stroke="#26DD7C"/>
<path d="M13.7379 12V11.233L16.6186 8.07955C16.9566 7.71023 17.235 7.3892 17.4538 7.11648C17.6725 6.84091 17.8345 6.58239 17.9396 6.34091C18.0475 6.09659 18.1015 5.84091 18.1015 5.57386C18.1015 5.26705 18.0277 5.00142 17.8799 4.77699C17.735 4.55256 17.5362 4.37926 17.2833 4.2571C17.0305 4.13494 16.7464 4.07386 16.4311 4.07386C16.0958 4.07386 15.8032 4.14347 15.5532 4.28267C15.3061 4.41903 15.1143 4.6108 14.9779 4.85795C14.8444 5.10511 14.7777 5.39489 14.7777 5.72727H13.772C13.772 5.21591 13.8899 4.76705 14.1257 4.38068C14.3615 3.99432 14.6825 3.69318 15.0887 3.47727C15.4978 3.26136 15.9566 3.15341 16.4652 3.15341C16.9765 3.15341 17.4296 3.26136 17.8245 3.47727C18.2194 3.69318 18.5291 3.98437 18.7535 4.35085C18.9779 4.71733 19.0902 5.125 19.0902 5.57386C19.0902 5.89489 19.0319 6.20881 18.9154 6.51562C18.8018 6.8196 18.6029 7.15909 18.3188 7.53409C18.0376 7.90625 17.647 8.3608 17.147 8.89773L15.1867 10.9943V11.0625H19.2436V12H13.7379ZM23.9524 12.1193C23.3899 12.1193 22.8885 12.0227 22.4481 11.8295C22.0106 11.6364 21.6626 11.3679 21.4041 11.0241C21.1484 10.6776 21.0092 10.2756 20.9865 9.81818H22.0603C22.0831 10.0994 22.1796 10.3423 22.3501 10.5469C22.5206 10.7486 22.7436 10.9048 23.0191 11.0156C23.2947 11.1264 23.6001 11.1818 23.9353 11.1818C24.3103 11.1818 24.6427 11.1165 24.9325 10.9858C25.2223 10.8551 25.4495 10.6733 25.6143 10.4403C25.7791 10.2074 25.8615 9.9375 25.8615 9.63068C25.8615 9.30966 25.7819 9.02699 25.6228 8.78267C25.4637 8.53551 25.2308 8.34233 24.924 8.20312C24.6171 8.06392 24.2421 7.99432 23.799 7.99432H23.1001V7.05682H23.799C24.1456 7.05682 24.4495 6.99432 24.7109 6.86932C24.9751 6.74432 25.1811 6.56818 25.3288 6.34091C25.4794 6.11364 25.5546 5.84659 25.5546 5.53977C25.5546 5.24432 25.4893 4.98722 25.3586 4.76847C25.2279 4.54972 25.0433 4.37926 24.8046 4.2571C24.5688 4.13494 24.2904 4.07386 23.9694 4.07386C23.6683 4.07386 23.3842 4.12926 23.1171 4.24006C22.8529 4.34801 22.637 4.50568 22.4694 4.71307C22.3018 4.91761 22.2109 5.16477 22.1967 5.45455H21.174C21.191 4.99716 21.3288 4.59659 21.5873 4.25284C21.8458 3.90625 22.1839 3.63636 22.6015 3.44318C23.022 3.25 23.4836 3.15341 23.9865 3.15341C24.5262 3.15341 24.9893 3.26278 25.3757 3.48153C25.762 3.69744 26.0589 3.98295 26.2663 4.33807C26.4737 4.69318 26.5774 5.0767 26.5774 5.48864C26.5774 5.98011 26.4481 6.39915 26.1896 6.74574C25.9339 7.09233 25.5859 7.33239 25.1456 7.46591V7.53409C25.6967 7.625 26.1271 7.85937 26.4367 8.23722C26.7464 8.61222 26.9012 9.0767 26.9012 9.63068C26.9012 10.1051 26.772 10.5312 26.5135 10.9091C26.2578 11.2841 25.9083 11.5795 25.4652 11.7955C25.022 12.0114 24.5177 12.1193 23.9524 12.1193ZM31.7123 3.27273V12H30.6555V4.38068H30.6044L28.4737 5.79545V4.72159L30.6555 3.27273H31.7123Z" fill="#2DEF1D"/>
<path d="M35.6382 158.669L22 173.298L35.6382 158.669Z" fill="#2DEF1D"/>
<path d="M35.6382 158.669L22 173.298" stroke="#26DD7C"/>
<path d="M1.57848 173.298L5.48189 165.576V165.508H0.981889V164.571H6.5728V165.559L2.68643 173.298H1.57848ZM10.9109 173.417C10.3484 173.417 9.84695 173.321 9.40661 173.127C8.96911 172.934 8.62109 172.666 8.36257 172.322C8.10689 171.975 7.96768 171.573 7.94496 171.116H9.01882C9.04155 171.397 9.13814 171.64 9.30859 171.845C9.47905 172.046 9.70206 172.203 9.97763 172.314C10.2532 172.424 10.5586 172.48 10.8938 172.48C11.2688 172.48 11.6012 172.414 11.891 172.284C12.1808 172.153 12.408 171.971 12.5728 171.738C12.7376 171.505 12.82 171.235 12.82 170.929C12.82 170.608 12.7404 170.325 12.5813 170.081C12.4222 169.833 12.1893 169.64 11.8825 169.501C11.5756 169.362 11.2006 169.292 10.7575 169.292H10.0586V168.355H10.7575C11.104 168.355 11.408 168.292 11.6694 168.167C11.9336 168.042 12.1396 167.866 12.2873 167.639C12.4379 167.412 12.5131 167.145 12.5131 166.838C12.5131 166.542 12.4478 166.285 12.3171 166.066C12.1864 165.848 12.0018 165.677 11.7631 165.555C11.5273 165.433 11.2489 165.372 10.9279 165.372C10.6268 165.372 10.3427 165.427 10.0756 165.538C9.81143 165.646 9.59553 165.804 9.42791 166.011C9.2603 166.216 9.16939 166.463 9.15518 166.752H8.13246C8.1495 166.295 8.28729 165.895 8.54581 165.551C8.80433 165.204 9.1424 164.934 9.56001 164.741C9.98047 164.548 10.4421 164.451 10.945 164.451C11.4847 164.451 11.9478 164.561 12.3342 164.779C12.7205 164.995 13.0174 165.281 13.2248 165.636C13.4322 165.991 13.5359 166.375 13.5359 166.787C13.5359 167.278 13.4066 167.697 13.1481 168.044C12.8924 168.39 12.5444 168.63 12.104 168.764V168.832C12.6552 168.923 13.0856 169.157 13.3952 169.535C13.7049 169.91 13.8597 170.375 13.8597 170.929C13.8597 171.403 13.7305 171.829 13.4719 172.207C13.2163 172.582 12.8668 172.877 12.4237 173.093C11.9805 173.309 11.4762 173.417 10.9109 173.417ZM18.3299 173.417C17.8299 173.417 17.3796 173.318 16.979 173.119C16.5785 172.92 16.2575 172.647 16.016 172.301C15.7745 171.954 15.6424 171.559 15.6197 171.116H16.6424C16.6822 171.511 16.8612 171.838 17.1793 172.096C17.5004 172.352 17.8839 172.48 18.3299 172.48C18.6879 172.48 19.006 172.396 19.2844 172.228C19.5657 172.061 19.7859 171.831 19.945 171.538C20.1069 171.243 20.1879 170.909 20.1879 170.537C20.1879 170.156 20.104 169.816 19.9364 169.518C19.7717 169.217 19.5444 168.98 19.2546 168.806C18.9648 168.633 18.6339 168.545 18.2617 168.542C17.9947 168.539 17.7205 168.581 17.4393 168.666C17.158 168.748 16.9265 168.855 16.7447 168.985L15.756 168.866L16.2844 164.571H20.8185V165.508H17.1708L16.864 168.082H16.9151C17.0941 167.94 17.3185 167.822 17.5884 167.728C17.8583 167.635 18.1396 167.588 18.4322 167.588C18.9663 167.588 19.4421 167.716 19.8597 167.971C20.2802 168.224 20.6097 168.571 20.8484 169.011C21.0898 169.451 21.2106 169.954 21.2106 170.52C21.2106 171.076 21.0856 171.573 20.8356 172.011C20.5884 172.446 20.2475 172.789 19.8129 173.042C19.3782 173.292 18.8839 173.417 18.3299 173.417Z" fill="#2DEF1D"/>
<path d="M167.308 136.244L185.02 145.534L167.308 136.244Z" fill="#2DEF1D"/>
<path d="M167.308 136.244L185.02 145.534" stroke="#26DD7C"/>
<path d="M185.923 145.534V144.767L188.804 141.613C189.142 141.244 189.42 140.923 189.639 140.65C189.858 140.374 190.02 140.116 190.125 139.874C190.233 139.63 190.287 139.374 190.287 139.107C190.287 138.801 190.213 138.535 190.065 138.311C189.92 138.086 189.721 137.913 189.469 137.791C189.216 137.669 188.932 137.607 188.616 137.607C188.281 137.607 187.988 137.677 187.738 137.816C187.491 137.953 187.299 138.144 187.163 138.392C187.03 138.639 186.963 138.928 186.963 139.261H185.957C185.957 138.749 186.075 138.301 186.311 137.914C186.547 137.528 186.868 137.227 187.274 137.011C187.683 136.795 188.142 136.687 188.65 136.687C189.162 136.687 189.615 136.795 190.01 137.011C190.405 137.227 190.714 137.518 190.939 137.884C191.163 138.251 191.275 138.659 191.275 139.107C191.275 139.428 191.217 139.742 191.101 140.049C190.987 140.353 190.788 140.693 190.504 141.068C190.223 141.44 189.832 141.894 189.332 142.431L187.372 144.528V144.596H191.429V145.534H185.923ZM196.086 145.653C195.728 145.647 195.371 145.579 195.013 145.448C194.655 145.318 194.328 145.097 194.032 144.788C193.737 144.475 193.5 144.053 193.321 143.522C193.142 142.988 193.052 142.318 193.052 141.511C193.052 140.738 193.125 140.053 193.27 139.457C193.415 138.857 193.625 138.353 193.9 137.944C194.176 137.532 194.508 137.22 194.897 137.007C195.29 136.794 195.731 136.687 196.223 136.687C196.711 136.687 197.146 136.785 197.527 136.981C197.91 137.174 198.223 137.444 198.464 137.791C198.706 138.137 198.862 138.536 198.933 138.988H197.893C197.797 138.596 197.609 138.271 197.331 138.012C197.052 137.754 196.683 137.624 196.223 137.624C195.547 137.624 195.014 137.919 194.625 138.507C194.238 139.095 194.044 139.92 194.041 140.982H194.109C194.268 140.741 194.457 140.535 194.676 140.365C194.897 140.191 195.142 140.058 195.409 139.964C195.676 139.87 195.959 139.823 196.257 139.823C196.757 139.823 197.214 139.948 197.629 140.198C198.044 140.446 198.376 140.788 198.626 141.225C198.876 141.66 199.001 142.159 199.001 142.721C199.001 143.261 198.88 143.755 198.639 144.204C198.397 144.65 198.058 145.005 197.621 145.269C197.186 145.531 196.674 145.659 196.086 145.653ZM196.086 144.715C196.444 144.715 196.765 144.626 197.049 144.447C197.336 144.268 197.562 144.028 197.727 143.727C197.895 143.426 197.978 143.09 197.978 142.721C197.978 142.36 197.897 142.032 197.736 141.737C197.576 141.438 197.356 141.201 197.075 141.025C196.797 140.849 196.478 140.761 196.121 140.761C195.851 140.761 195.599 140.815 195.366 140.923C195.133 141.028 194.929 141.173 194.753 141.357C194.579 141.542 194.443 141.754 194.344 141.992C194.244 142.228 194.194 142.477 194.194 142.738C194.194 143.085 194.275 143.409 194.437 143.71C194.602 144.011 194.826 144.254 195.111 144.438C195.397 144.623 195.723 144.715 196.086 144.715ZM200.677 145.534V144.767L203.558 141.613C203.896 141.244 204.174 140.923 204.393 140.65C204.612 140.374 204.774 140.116 204.879 139.874C204.987 139.63 205.041 139.374 205.041 139.107C205.041 138.801 204.967 138.535 204.819 138.311C204.674 138.086 204.475 137.913 204.222 137.791C203.97 137.669 203.685 137.607 203.37 137.607C203.035 137.607 202.742 137.677 202.492 137.816C202.245 137.953 202.053 138.144 201.917 138.392C201.784 138.639 201.717 138.928 201.717 139.261H200.711C200.711 138.749 200.829 138.301 201.065 137.914C201.301 137.528 201.622 137.227 202.028 137.011C202.437 136.795 202.896 136.687 203.404 136.687C203.916 136.687 204.369 136.795 204.764 137.011C205.159 137.227 205.468 137.518 205.693 137.884C205.917 138.251 206.029 138.659 206.029 139.107C206.029 139.428 205.971 139.742 205.855 140.049C205.741 140.353 205.542 140.693 205.258 141.068C204.977 141.44 204.586 141.894 204.086 142.431L202.126 144.528V144.596H206.183V145.534H200.677Z" fill="#2DEF1D"/>
<path d="M36.9801 91.7273V115H34.1619V91.7273H36.9801ZM42.6307 91.7273H45.9943L53.9034 111.045H54.1761L62.0852 91.7273H65.4489V115H62.8125V97.3182H62.5852L55.3125 115H52.767L45.4943 97.3182H45.267V115H42.6307V91.7273ZM72.054 115H69.0994L77.6449 91.7273H80.554L89.0994 115H86.1449L79.1903 95.4091H79.0085L72.054 115ZM73.1449 105.909H85.054V108.409H73.1449V105.909ZM107.54 99C107.29 98.2348 106.96 97.5492 106.551 96.9432C106.15 96.3295 105.669 95.8068 105.108 95.375C104.555 94.9432 103.926 94.6136 103.222 94.3864C102.517 94.1591 101.744 94.0455 100.903 94.0455C99.5246 94.0455 98.2708 94.4015 97.142 95.1136C96.0133 95.8258 95.1155 96.875 94.4489 98.2614C93.7822 99.6477 93.4489 101.348 93.4489 103.364C93.4489 105.379 93.786 107.08 94.4602 108.466C95.1345 109.852 96.0473 110.902 97.1989 111.614C98.3504 112.326 99.6458 112.682 101.085 112.682C102.419 112.682 103.593 112.398 104.608 111.83C105.631 111.254 106.426 110.443 106.994 109.398C107.57 108.345 107.858 107.106 107.858 105.682L108.722 105.864H101.722V103.364H110.585V105.864C110.585 107.78 110.176 109.447 109.358 110.864C108.547 112.28 107.426 113.379 105.994 114.159C104.57 114.932 102.934 115.318 101.085 115.318C99.0246 115.318 97.214 114.833 95.6534 113.864C94.1004 112.894 92.8883 111.515 92.017 109.727C91.1534 107.939 90.7216 105.818 90.7216 103.364C90.7216 101.523 90.9678 99.8674 91.4602 98.3977C91.9602 96.9205 92.6648 95.6629 93.5739 94.625C94.483 93.5871 95.5587 92.7917 96.8011 92.2386C98.0436 91.6856 99.411 91.4091 100.903 91.4091C102.131 91.4091 103.275 91.5947 104.335 91.9659C105.403 92.3295 106.354 92.8485 107.188 93.5227C108.028 94.1894 108.729 94.9886 109.29 95.9205C109.85 96.8447 110.237 97.8712 110.449 99H107.54ZM115.412 115V91.7273H129.457V94.2273H118.23V102.091H128.73V104.591H118.23V112.5H129.639V115H115.412ZM146.355 91.7273V115H143.537V91.7273H146.355ZM154.824 91.7273V115H152.006V91.7273H154.824Z" fill="black"/>
</svg>
