<svg width="88" height="88" viewBox="0 0 88 88" fill="none" xmlns="http://www.w3.org/2000/svg">
<path opacity="0.4" fill-rule="evenodd" clip-rule="evenodd" d="M55.483 47.5653C50.3167 47.734 44.4683 47.9173 41.9383 45.3873C39.1993 42.6447 38.9867 36.5983 38.8143 31.7363C38.653 27.1457 38.5247 23.5157 36.662 21.6567C34.4877 19.4823 30.854 19.2257 26.696 20.9417C18.0537 24.524 8.86499 35.689 8.86499 49.3217C8.86499 65.8987 22.3547 79.3883 38.9353 79.3883C55.1457 79.3883 64.58 67.0463 67.6013 59.757C69.5043 55.1663 69.5337 51.4703 67.682 49.626C65.3097 47.25 60.7483 47.404 55.483 47.5653Z" fill="#66C69A"/>
<path fill-rule="evenodd" clip-rule="evenodd" d="M78.9009 28.3897C77.2986 20.7411 67.5379 11.3654 58.8112 9.09574C54.5322 7.97741 50.9242 8.81341 48.6509 11.4314C45.4939 15.0687 44.4489 35.0521 48.1302 38.7334C49.6336 40.2367 53.4286 40.8747 57.7992 40.8747C64.7292 40.8747 73.0966 39.2687 76.0629 36.9367C78.6259 34.9201 79.6342 31.8841 78.9009 28.3897Z" fill="#3DE402"/>
</svg>
