<svg width="20" height="20" viewBox="0 0 20 20" fill="none" xmlns="http://www.w3.org/2000/svg">
<path d="M9.99998 8.95834C10.3452 8.95834 10.625 9.23816 10.625 9.58334V13.75C10.625 14.0952 10.3452 14.375 9.99998 14.375C9.6548 14.375 9.37498 14.0952 9.37498 13.75V9.58334C9.37498 9.23816 9.6548 8.95834 9.99998 8.95834Z" fill="black"/>
<path d="M9.99998 7.5C10.4602 7.5 10.8333 7.12691 10.8333 6.66667C10.8333 6.20643 10.4602 5.83334 9.99998 5.83334C9.53974 5.83334 9.16665 6.20643 9.16665 6.66667C9.16665 7.12691 9.53974 7.5 9.99998 7.5Z" fill="black"/>
<path fill-rule="evenodd" clip-rule="evenodd" d="M2.70831 10C2.70831 5.97293 5.9729 2.70834 9.99998 2.70834C14.0271 2.70834 17.2916 5.97293 17.2916 10C17.2916 14.0271 14.0271 17.2917 9.99998 17.2917C5.9729 17.2917 2.70831 14.0271 2.70831 10ZM9.99998 3.95834C6.66326 3.95834 3.95831 6.66328 3.95831 10C3.95831 13.3367 6.66326 16.0417 9.99998 16.0417C13.3367 16.0417 16.0416 13.3367 16.0416 10C16.0416 6.66328 13.3367 3.95834 9.99998 3.95834Z" fill="black"/>
</svg>
